# xmcd CD database file
# Copyright (C) 1997 Ti Kan
# 
# Track frame offsets:
#     150
#     18300
#     32517
#     42462
#     63722
#     82107
#     99020
#     119960
#     133740
#     152062
#     168380
#     181242
#     198912
#     213640
#     236000
#     251430
# 
# Disc length: 3574 seconds
# 
# Revision: 1
# Processed by: cddbd v1.4b41PL1 Copyright (c) Steve Scherf et al.
# Submitted via: DiscPlay 4.0.4
# 
DISCID=e00df410
DTITLE=Various Artist - Q Country - Disk 1
DYEAR=1900
DGENRE=
TTITLE0=Mary Chapin-Carpenter - He Thinks He'll Keep Her
TTITLE1=Radney Foster - Just Call Me Lonesome
TTITLE2=Nanci Griffith - Ford Econoline
TTITLE3=Bruce Hornsby and The Range - The Valley Road
TTITLE4=Vince Gill - Pocket Full Of Gold
TTITLE5=Wynonna - Tell Me Why
TTITLE6=Clint Black - We Tell Ourselves
TTITLE7=Dwight Yoakham - Guitars Cadillacs
TTITLE8=Steve Earle - Johnny Come Lately
TTITLE9=Suzy Bogguss - Eat At Joe's
TTITLE10=Alan Jackson - Don't Rock The Jukebox
TTITLE11=Rodney Crowell - What Kind Of Love
TTITLE12=Roseanne Cash - Seven Year Ache
TTITLE13=Joe Ely - West Texas Waltz
TTITLE14=Jimmie Dale Gilmore - Treat Me Like A Saturday Night
TTITLE15=Carlene Carter - I Fell In Love
EXTD=
EXTT0=
EXTT1=
EXTT2=
EXTT3=
EXTT4=
EXTT5=
EXTT6=
EXTT7=
EXTT8=
EXTT9=
EXTT10=
EXTT11=
EXTT12=
EXTT13=
EXTT14=
EXTT15=
PLAYORDER=
